<mxfile host="app.diagrams.net" modified="2024-07-19T06:50:02.719Z" agent="Mozilla/5.0 (Windows NT 10.0; Win64; x64) AppleWebKit/537.36 (KHTML, like Gecko) Chrome/126.0.0.0 Safari/537.36" etag="6hYa6Q2_KGC2VO1Tk32I" version="24.7.0" type="github">
  <diagram name="第 1 页" id="ifA0_hOEludAeUsXiRPQ">
    <mxGraphModel dx="1082" dy="744" grid="1" gridSize="10" guides="1" tooltips="1" connect="1" arrows="1" fold="1" page="1" pageScale="1" pageWidth="1960" pageHeight="3000" math="0" shadow="0">
      <root>
        <mxCell id="0" />
        <mxCell id="1" parent="0" />
        <mxCell id="b9-8BFwYf_OnpJ2hY2h1-2" value="    enum AVCodecID video_codec_id = AV_CODEC_ID_H264;&#xa;    if (strstr(filename, &quot;264&quot;) != NULL)&#xa;    {&#xa;        video_codec_id = AV_CODEC_ID_H264;&#xa;    }&#xa;    else if (strstr(filename, &quot;mpeg2&quot;) != NULL)&#xa;    {&#xa;        video_codec_id = AV_CODEC_ID_MPEG2VIDEO;&#xa;    }&#xa;    else&#xa;    {&#xa;        printf(&quot;default codec id:%d\n&quot;, video_codec_id);&#xa;    }&#xa;&#xa;    /*== 1、查找解码器  */&#xa;    codec = avcodec_find_decoder(video_codec_id); // AV_CODEC_ID_H264" style="text;verticalAlign=middle;horizontal=1;whiteSpace=wrap;" vertex="1" parent="1">
          <mxGeometry x="830" y="15" width="390" height="290" as="geometry" />
        </mxCell>
        <mxCell id="b9-8BFwYf_OnpJ2hY2h1-3" value="&lt;pre style=&quot;margin-top: 0px; margin-bottom: 0px; font-size: 16px;&quot;&gt;&lt;pre style=&quot;margin-top: 0px; margin-bottom: 0px;&quot;&gt;&lt;span style=&quot;&quot;&gt;获取解析器&lt;br&gt;&lt;/span&gt;&lt;pre style=&quot;margin-top: 0px; margin-bottom: 0px;&quot;&gt;&lt;span style=&quot;color:#800080;&quot;&gt;AVCodecParserContext&lt;/span&gt;&lt;span style=&quot;color:#c0c0c0;&quot;&gt; &lt;/span&gt;*&lt;span style=&quot;font-weight:600; color:#00677c;&quot;&gt;av_parser_init&lt;/span&gt;(&lt;span style=&quot;color:#808000;&quot;&gt;int&lt;/span&gt;&lt;span style=&quot;color:#c0c0c0;&quot;&gt; &lt;/span&gt;codec_id);&lt;/pre&gt;&lt;span style=&quot;&quot;&gt;&lt;br&gt;&lt;/span&gt;&lt;/pre&gt;&lt;/pre&gt;" style="rounded=1;whiteSpace=wrap;html=1;fillColor=#dae8fc;strokeColor=#6c8ebf;shadow=1;fontSize=17;fontColor=#000000;" vertex="1" parent="1">
          <mxGeometry x="350" y="150" width="430" height="60" as="geometry" />
        </mxCell>
      </root>
    </mxGraphModel>
  </diagram>
</mxfile>
